<svg xmlns="http://www.w3.org/2000/svg" viewBox="0 0 24 24" fill="currentColor">
  <title>Streamable</title>
  <path d="M7.5 6C4.46 6 2 8.46 2 11.5S4.46 17 7.5 17c1.52 0 2.9-.62 3.9-1.62L12 14.78l.6.6c1 1 2.38 1.62 3.9 1.62 3.04 0 5.5-2.46 5.5-5.5S19.54 6 16.5 6c-1.52 0-2.9.62-3.9 1.62L12 8.22l-.6-.6C10.4 6.62 9.02 6 7.5 6zm0 2.5c.66 0 1.26.27 1.7.7L12 12l2.8-2.8c.44-.43 1.04-.7 1.7-.7 1.38 0 2.5 1.12 2.5 2.5s-1.12 2.5-2.5 2.5c-.66 0-1.26-.27-1.7-.7L12 10l-2.8 2.8c-.44.43-1.04.7-1.7.7-1.38 0-2.5-1.12-2.5-2.5S6.12 8.5 7.5 8.5z"/>
</svg>
